<?xml version="1.0" encoding="UTF-8"?>
<svg version="1.1" xmlns="http://www.w3.org/2000/svg" width="512" height="512">
<path d="M0 0 C0.95755692 -0.00701431 1.91511383 -0.01402863 2.90168762 -0.02125549 C5.97487148 -0.03865501 9.04786244 -0.04510791 12.12109375 -0.046875 C13.17282776 -0.04754974 14.22456177 -0.04822449 15.3081665 -0.04891968 C31.26292885 -0.03265947 46.80459286 0.46295006 62.55859375 3.203125 C63.5842041 3.37473145 64.60981445 3.54633789 65.66650391 3.72314453 C125.71685387 13.99938579 187.71758252 43.62319217 224.3671875 93.9765625 C249.81443355 131.44434367 263.4564659 174.71839354 254.93359375 220.265625 C244.7828346 269.39786448 211.90852705 310.3348275 170.56640625 337.5390625 C104.43695755 379.93616732 22.86284504 391.16822631 -53.44140625 375.203125 C-68.6227154 371.81877039 -83.24809164 367.14234015 -97.73828125 361.51171875 C-98.65174316 361.16302734 -99.56520508 360.81433594 -100.50634766 360.45507812 C-103.44140625 359.203125 -103.44140625 359.203125 -106.79443359 357.35742188 C-113.43820988 353.77103973 -113.43820988 353.77103973 -120.7265625 353.9675293 C-124.19891707 355.67766392 -127.37086187 357.66267617 -130.56640625 359.828125 C-131.7729501 360.58874853 -132.98308794 361.3436973 -134.1965332 362.09326172 C-136.71303973 363.65388304 -139.21241554 365.23764206 -141.70263672 366.83984375 C-146.97859994 370.20828929 -152.42488959 373.27026144 -157.87799072 376.34008789 C-160.21990304 377.66162296 -162.55319227 378.99801917 -164.88696289 380.3338623 C-171.96132282 384.38082548 -179.07232085 388.36055825 -186.19140625 392.328125 C-195.65855873 397.60458928 -205.04592523 403.00650573 -214.38964844 408.49853516 C-218.74711357 411.05848897 -223.10942196 413.60947877 -227.50390625 416.10546875 C-228.21675781 416.51144287 -228.92960938 416.91741699 -229.6640625 417.33569336 C-231.44140625 418.203125 -231.44140625 418.203125 -233.44140625 418.203125 C-231.78848167 412.52907378 -229.18635538 407.46706095 -226.5168457 402.22216797 C-226.01751526 401.23285278 -225.51818481 400.2435376 -225.00372314 399.22424316 C-223.92228374 397.08232428 -222.83910729 394.94128173 -221.75438881 392.80102158 C-220.03994106 389.4161987 -218.331885 386.0282247 -216.6257782 382.63919067 C-211.77556422 373.00594686 -206.91897568 363.37597065 -202.0456543 353.75439453 C-199.06302326 347.86549509 -196.0929873 341.97034824 -193.12993431 336.07156754 C-191.9975849 333.8230114 -190.86079059 331.5766881 -189.71953773 329.33263779 C-188.12797742 326.20224788 -186.55125846 323.06480267 -184.9777832 319.92529297 C-184.50044235 318.99532501 -184.0231015 318.06535706 -183.53129578 317.10720825 C-183.1064389 316.25213684 -182.68158203 315.39706543 -182.24385071 314.51608276 C-181.86943501 313.77537977 -181.49501932 313.03467678 -181.1092577 312.27152824 C-180.3126376 309.80431552 -180.52322923 308.6008877 -181.44140625 306.203125 C-182.84968842 304.58219301 -182.84968842 304.58219301 -184.69140625 303.015625 C-211.72948884 276.89984684 -229.77677708 236.26039209 -230.64453125 198.74609375 C-231.1740455 149.43759302 -213.24183184 107.86818482 -179.03613281 72.51245117 C-171.66800002 65.03962525 -163.93409868 58.36015611 -155.44140625 52.203125 C-154.81121582 51.74454102 -154.18102539 51.28595703 -153.53173828 50.81347656 C-143.89851596 43.86374336 -133.93497593 37.76006461 -123.44140625 32.203125 C-122.80267578 31.8618457 -122.16394531 31.52056641 -121.50585938 31.16894531 C-84.79824089 11.69713754 -41.63689511 0.2059329 0 0 Z " fill="#3AA1D9" transform="translate(244.44140625,46.796875)"/>
<path d="M0 0 C9.03100198 5.17182381 14.28262365 12.41755907 18.0625 22.0390625 C19.8856925 32.2489405 18.51679275 41.35760413 13 50.2265625 C7.54573413 57.81161036 0.93004837 63.40323289 -8.3125 65.5390625 C-19.81542605 66.69066374 -28.81944215 64.94300334 -38.2421875 58.26171875 C-45.36288373 52.33676207 -49.72486979 44.09756458 -50.6953125 34.91796875 C-51.02790576 23.90913171 -49.2131288 16.6245376 -42.0625 8.2265625 C-30.51332173 -3.85361248 -15.47382285 -7.36652737 0 0 Z " fill="#9FD9F8" transform="translate(149.3125,206.4609375)"/>
<path d="M0 0 C7.14145489 5.71316391 12.55765356 12.60319101 14.5625 21.625 C14.645 22.82125 14.7275 24.0175 14.8125 25.25 C14.87566406 26.00023437 14.93882812 26.75046875 15.00390625 27.5234375 C15.46640764 36.9823369 12.72590856 44.45032406 6.5625 51.625 C0.23644181 58.16919813 -6.44969961 62.7017213 -15.703125 63.5859375 C-28.18222008 63.71647197 -35.79968583 61.5012634 -44.91796875 52.828125 C-52.22135854 44.53167532 -54.57367782 36.43547662 -54.46484375 25.63671875 C-53.72266696 16.57379941 -49.00590161 8.49983022 -42.234375 2.52734375 C-28.66430403 -8.01276862 -14.80119161 -8.12614441 0 0 Z " fill="#A0D9F8" transform="translate(276.1875,208.75)"/>
<path d="M0 0 C7.40298845 5.03347131 11.69385587 12.43085421 14.75 20.71484375 C16.22078842 32.51792082 14.42702904 42.95930578 7.0625 52.58984375 C-0.33321853 60.38584602 -9.60195149 63.72931104 -20.125 64.08984375 C-29.88840009 63.92436239 -37.10107552 60.27556559 -44.25 53.71484375 C-50.61189219 46.64767392 -53.81169109 39.830152 -53.625 30.33984375 C-53.61412354 29.58960938 -53.60324707 28.839375 -53.59204102 28.06640625 C-53.3026012 18.000454 -50.35092464 11.00805649 -43.25 3.71484375 C-30.15791542 -7.07378609 -14.89862155 -8.50980293 0 0 Z " fill="#A0D9F8" transform="translate(399.25,208.28515625)"/>
<path d="M0 0 C1.51829558 0.00186273 3.03661084 0.01711915 4.5546875 0.04296875 C5.77792725 0.05807495 5.77792725 0.05807495 7.02587891 0.07348633 C9.49427417 0.11257205 11.96172516 0.17044823 14.4296875 0.23046875 C15.67234375 0.24851562 16.915 0.2665625 18.1953125 0.28515625 C36.32287634 0.95218782 55.23742843 4.44316224 72.4296875 10.23046875 C73.61498047 10.60631104 73.61498047 10.60631104 74.82421875 10.98974609 C95.82833603 17.65155708 116.4382496 26.34916439 134.4296875 39.23046875 C135.43515625 39.94589844 136.440625 40.66132812 137.4765625 41.3984375 C170.68099656 65.69961009 193.97662235 96.15731847 204.4296875 136.23046875 C204.831875 137.73673828 204.831875 137.73673828 205.2421875 139.2734375 C206.56565635 145.20147504 206.6531448 151.17950984 206.7421875 157.23046875 C206.76007324 158.06908447 206.77795898 158.9077002 206.79638672 159.77172852 C206.79525879 160.56248779 206.79413086 161.35324707 206.79296875 162.16796875 C206.79594971 162.87824219 206.79893066 163.58851563 206.80200195 164.3203125 C206.31734069 166.80686313 205.43269944 167.72051968 203.4296875 169.23046875 C200.08776058 168.98593751 198.82425193 168.62503318 196.4296875 166.23046875 C196.19368186 163.66726825 196.06142304 161.17368352 195.9921875 158.60546875 C194.33049816 122.04055648 176.03803365 90.64814091 150.4296875 65.23046875 C146.90439693 62.02381994 143.23601066 59.09555439 139.4296875 56.23046875 C138.4190625 55.45445312 137.4084375 54.6784375 136.3671875 53.87890625 C108.38166078 32.85085153 74.89504845 19.6175246 40.4296875 14.23046875 C38.70700519 13.94156159 36.98434902 13.65249856 35.26171875 13.36328125 C24.74663011 11.67124336 14.36717812 10.81741807 3.71533203 10.60864258 C2.79220215 10.58568115 1.86907227 10.56271973 0.91796875 10.5390625 C0.09852783 10.52673584 -0.72091309 10.51440918 -1.56518555 10.50170898 C-3.5703125 10.23046875 -3.5703125 10.23046875 -5.5703125 8.23046875 C-5.8203125 5.23046875 -5.8203125 5.23046875 -5.5703125 2.23046875 C-3.5703125 0.23046875 -3.5703125 0.23046875 0 0 Z " fill="#9ED8F8" transform="translate(258.5703125,76.76953125)"/>
<path d="M0 0 C5.84360973 0.27473133 10.5297027 2.31303085 15.8125 4.6875 C44.43139687 17.084946 74.22185949 23.19133587 105.4230957 23.53417969 C106.84755005 23.56366699 106.84755005 23.56366699 108.30078125 23.59375 C109.13778564 23.60083984 109.97479004 23.60792969 110.8371582 23.61523438 C113 24 113 24 114.81323242 25.29492188 C116 27 116 27 115.6875 30.6875 C115.460625 31.780625 115.23375 32.87375 115 34 C79.743143 34.95586891 46.82721571 29.34839359 14 16 C13.26023926 15.71125 12.52047852 15.4225 11.75830078 15.125 C9.61575535 14.28172273 7.49454466 13.39930891 5.375 12.5 C3.56128906 11.74203125 3.56128906 11.74203125 1.7109375 10.96875 C-1 9 -1 9 -2.0234375 5.40625 C-2 2 -2 2 0 0 Z " fill="#9DD8F8" transform="translate(146,370)"/>
<path d="M0 0 C2.5625 0.3125 2.5625 0.3125 4.18359375 1.54370117 C5.91810853 3.76865861 6.01956585 5.12531354 6.1875 7.92578125 C6.25227539 8.8369873 6.31705078 9.74819336 6.38378906 10.68701172 C6.44276367 11.65654785 6.50173828 12.62608398 6.5625 13.625 C8.96492205 44.67052508 21.64763791 72.37784701 43.25 94.859375 C45.21424491 96.94306723 47.01553208 98.90496714 48.5625 101.3125 C48.4375 103.9375 48.4375 103.9375 47.5625 106.3125 C44.5625 108.3125 44.5625 108.3125 42.6875 108.25 C39.59671814 106.88641977 37.86714955 104.77793905 35.5625 102.3125 C34.82580078 101.63960937 34.82580078 101.63960937 34.07421875 100.953125 C16.11075529 84.3187006 1.90208803 57.26180535 -2.4375 33.3125 C-2.63988281 32.24257813 -2.84226563 31.17265625 -3.05078125 30.0703125 C-4.16369096 23.39285425 -4.63392039 16.81996069 -4.6875 10.0625 C-4.69676514 9.32298096 -4.70603027 8.58346191 -4.71557617 7.8215332 C-4.67248958 0.59903713 -4.67248958 0.59903713 0 0 Z " fill="#9DD8F8" transform="translate(54.4375,235.6875)"/>
</svg>
